<svg id="Слой_2" data-name="Слой 2" xmlns="http://www.w3.org/2000/svg" xmlns:xlink="http://www.w3.org/1999/xlink" viewBox="0 0 280.75 277.01"><defs><style>.cls-1{fill:url(#Безымянный_градиент_4);}.cls-2{fill:url(#Безымянный_градиент_4-2);}</style><linearGradient id="Безымянный_градиент_4" x1="100.6" y1="265.79" x2="248.09" y2="186.04" gradientUnits="userSpaceOnUse"><stop offset="0" stop-color="#ffe12f"/><stop offset="1" stop-color="#ffba00"/></linearGradient><linearGradient id="Безымянный_градиент_4-2" x1="40.99" y1="155.53" x2="188.48" y2="75.79" xlink:href="#Безымянный_градиент_4"/></defs><title>employee</title><path class="cls-1" d="M255.74,191.18a74.78,74.78,0,0,0-17.44-10.27L197.64,163.7c-8.6,32.15-17.52,58.41-24.63,77.69-11.24,30.44-16.61,39.68-22.8,39.7s-11.55-9-23-39.7C120,222.15,111,195.89,102.36,163.7L61.7,180.91a74.78,74.78,0,0,0-17.44,10.27C25.8,202.36,12,232.67,9.63,269.5c26.12,10.1,60.82,17.37,100,20.37l.86,0,31.74,1,7.75.24,7.75-.24,31.74-1,.86,0c39.2-3,73.9-10.27,100-20.37C288,232.67,274.2,202.36,255.74,191.18Z" transform="translate(-9.63 -14.11)"/><path class="cls-2" d="M214.76,105.62c-.19,12.43-6.92,24.31-14.73,33.16-9.27,26.12-27.42,44.06-48.39,44.8l-.48,0-.88,0H150l-.87,0-.49,0c-21-.74-39.11-18.68-48.38-44.8-7.82-8.85-14.54-20.73-14.73-33.16-.11-6.39,1.47-16.31,5.62-17.26V61.52c.17-1.21.41-2.58.72-4.1,1.55-7.35,5.07-17.83,13.62-26.66A49.73,49.73,0,0,1,112.15,25c10.67-7.66,24.33-11.26,38-10.89,13.67-.37,27.33,3.23,38,10.88a49.09,49.09,0,0,1,6.66,5.74c8.55,8.83,12.07,19.31,13.62,26.66.32,1.52.55,2.89.72,4.1V88.36C213.28,89.31,214.86,99.23,214.76,105.62Z" transform="translate(-9.63 -14.11)"/></svg>