<svg id="Слой_8" data-name="Слой 8" xmlns="http://www.w3.org/2000/svg" xmlns:xlink="http://www.w3.org/1999/xlink" viewBox="0 0 280.75 289.44"><defs><style>.cls-1{fill:url(#Безымянный_градиент_7);}.cls-2{fill:url(#Безымянный_градиент_7-2);}.cls-3{fill:url(#Безымянный_градиент_7-3);}.cls-4{fill:url(#Безымянный_градиент_7-4);}.cls-5{fill:url(#Безымянный_градиент_7-5);}.cls-6{fill:url(#Безымянный_градиент_7-6);}.cls-7{fill:url(#Безымянный_градиент_7-7);}.cls-8{fill:url(#Безымянный_градиент_7-8);}.cls-9{fill:url(#Безымянный_градиент_7-9);}.cls-10{fill:url(#Безымянный_градиент_8);}</style><linearGradient id="Безымянный_градиент_7" x1="24.93" y1="53.03" x2="158.86" y2="44.52" gradientUnits="userSpaceOnUse"><stop offset="0" stop-color="#ffe028"/><stop offset="1" stop-color="#ffb300"/></linearGradient><linearGradient id="Безымянный_градиент_7-2" x1="34.89" y1="209.77" x2="168.83" y2="201.25" xlink:href="#Безымянный_градиент_7"/><linearGradient id="Безымянный_градиент_7-3" x1="37.69" y1="253.76" x2="171.62" y2="245.25" xlink:href="#Безымянный_градиент_7"/><linearGradient id="Безымянный_градиент_7-4" x1="29.5" y1="124.98" x2="163.44" y2="116.46" xlink:href="#Безымянный_градиент_7"/><linearGradient id="Безымянный_градиент_7-5" x1="29.44" y1="124.08" x2="163.38" y2="115.56" xlink:href="#Безымянный_градиент_7"/><linearGradient id="Безымянный_градиент_7-6" x1="28.77" y1="113.54" x2="162.71" y2="105.03" xlink:href="#Безымянный_градиент_7"/><linearGradient id="Безымянный_градиент_7-7" x1="19.2" y1="112.27" x2="153.14" y2="103.75" xlink:href="#Безымянный_градиент_7"/><linearGradient id="Безымянный_градиент_7-8" x1="36.45" y1="234.28" x2="170.38" y2="225.76" xlink:href="#Безымянный_градиент_7"/><linearGradient id="Безымянный_градиент_7-9" x1="28.36" y1="107.01" x2="162.29" y2="98.5" xlink:href="#Безымянный_градиент_7"/><linearGradient id="Безымянный_градиент_8" x1="160.56" y1="161.31" x2="220.95" y2="134.6" gradientUnits="userSpaceOnUse"><stop offset="0" stop-color="#ffe028"/><stop offset="0.83" stop-color="#ffb300"/></linearGradient></defs><title>manager</title><path class="cls-1" d="M76.84,83.08H71.27c-.94-44.24,35.28-81,79.28-80.9,43.81.14,79.7,36.86,78.76,80.9h-6.16C224.21,42.15,191,8,150.55,7.65,109.66,7.33,75.77,41.72,76.84,83.08Z" transform="translate(-9.63 -2.18)"/><path class="cls-2" d="M165,187.81v21.81a7.87,7.87,0,0,1-7.87,7.87H144.34a7.87,7.87,0,0,1-7.87-7.87V187.81Z" transform="translate(-9.63 -2.18)"/><path class="cls-3" d="M164.63,244.39q-4.27,8.09-8.55,16.15-2.85,5.5-5.68,11a.91.91,0,0,1-.07-.14,1.1,1.1,0,0,0-.09.14l-5.67-11q-4.27-8.07-8.55-16.15c.59-2.65,1.41-6.25,2.24-9.78,1.28-6.29,2.53-12.35,2.53-12.35h19.05s1.25,6.06,2.56,12.35C163.2,238.14,164,241.74,164.63,244.39Z" transform="translate(-9.63 -2.18)"/><path class="cls-4" d="M237.67,88.83v45.48H243c4.83,0,8.74-7.13,8.74-15.91V104.74c0-8.78-3.91-15.91-8.74-15.91Z" transform="translate(-9.63 -2.18)"/><path class="cls-5" d="M234.86,88.62v45.89a5.55,5.55,0,0,1-5.55,5.55h-6.16a5.54,5.54,0,0,1-5.54-5.55V88.62a5.55,5.55,0,0,1,5.54-5.54h6.16A5.55,5.55,0,0,1,234.86,88.62Z" transform="translate(-9.63 -2.18)"/><path class="cls-6" d="M62.58,88.83v45.48H57.25c-4.83,0-8.74-7.13-8.74-15.91V104.74c0-8.78,3.91-15.91,8.74-15.91Z" transform="translate(-9.63 -2.18)"/><rect class="cls-7" x="55.8" y="80.91" width="17.25" height="56.98" rx="5.84"/><path class="cls-8" d="M255.74,191.68a74.78,74.78,0,0,0-17.44-10.27L197.64,164.2c-8.6,32.15-17.52,58.41-24.63,77.69-11.24,30.44-16.61,39.68-22.8,39.7s-11.55-9-23-39.7C120,222.65,111,196.39,102.36,164.2L61.7,181.41a74.78,74.78,0,0,0-17.44,10.27C25.8,202.86,12,233.17,9.63,270c26.12,10.1,60.82,17.37,100,20.37l.86,0,31.74,1,7.75.24,7.75-.24,31.74-1,.86,0c39.2-3,73.9-10.27,100-20.37C288,233.17,274.2,202.86,255.74,191.68Z" transform="translate(-9.63 -2.18)"/><path class="cls-9" d="M214.76,106.12c-.19,12.43-6.92,24.31-14.73,33.16-9.27,26.12-27.42,44.06-48.39,44.8l-.48,0-.88,0H150l-.87,0-.49,0c-21-.74-39.11-18.68-48.38-44.8-7.82-8.85-14.54-20.73-14.73-33.16-.11-6.39,1.47-16.31,5.62-17.26V62c.17-1.21.41-2.58.72-4.1,1.55-7.35,5.07-17.83,13.62-26.66a49.73,49.73,0,0,1,6.66-5.73c10.67-7.66,24.33-11.26,38-10.89,13.67-.37,27.33,3.23,38,10.88a49.09,49.09,0,0,1,6.66,5.74c8.55,8.83,12.07,19.31,13.62,26.66.32,1.52.55,2.89.72,4.1V88.86C213.28,89.81,214.86,99.73,214.76,106.12Z" transform="translate(-9.63 -2.18)"/><path class="cls-10" d="M223.15,140.06a240.18,240.18,0,0,1-22.82,9.61,239.88,239.88,0,0,1-28.4,8.3V149.7a158.58,158.58,0,0,0,25.46-6.53,158.42,158.42,0,0,0,20.22-8.66A5.54,5.54,0,0,0,223.15,140.06Z" transform="translate(-9.63 -2.18)"/></svg>