<svg id="Слой_4" data-name="Слой 4" xmlns="http://www.w3.org/2000/svg" xmlns:xlink="http://www.w3.org/1999/xlink" viewBox="0 0 280.75 277.01"><defs><style>.cls-1{fill:url(#Безымянный_градиент_4);}.cls-2{fill:url(#Безымянный_градиент_4-2);}.cls-3{fill:url(#Безымянный_градиент_4-3);}.cls-4{fill:url(#Безымянный_градиент_4-4);}</style><linearGradient id="Безымянный_градиент_4" x1="70.53" y1="253.29" x2="242.92" y2="138.71" gradientUnits="userSpaceOnUse"><stop offset="0" stop-color="#ffe43c"/><stop offset="1" stop-color="#ffba00"/></linearGradient><linearGradient id="Безымянный_градиент_4-2" x1="90.2" y1="282.89" x2="262.59" y2="168.31" xlink:href="#Безымянный_градиент_4"/><linearGradient id="Безымянный_градиент_4-3" x1="89.38" y1="281.65" x2="261.77" y2="167.07" xlink:href="#Безымянный_градиент_4"/><linearGradient id="Безымянный_градиент_4-4" x1="22.12" y1="180.45" x2="194.5" y2="65.87" xlink:href="#Безымянный_градиент_4"/></defs><title>supervisor</title><path class="cls-1" d="M164.48,187.31v21.81a7.87,7.87,0,0,1-7.87,7.87H143.84a7.87,7.87,0,0,1-7.87-7.87V187.31Z" transform="translate(-9.13 -14.11)"/><path class="cls-2" d="M164.13,243.89Q159.86,252,155.58,260q-2.85,5.5-5.68,11a.91.91,0,0,1-.07-.14,1.1,1.1,0,0,0-.09.14l-5.67-11q-4.27-8.07-8.55-16.15c.59-2.65,1.41-6.25,2.24-9.78,1.28-6.29,2.53-12.35,2.53-12.35h19.05s1.25,6.06,2.56,12.35C162.7,237.64,163.52,241.24,164.13,243.89Z" transform="translate(-9.13 -14.11)"/><path class="cls-3" d="M255.24,191.18a74.78,74.78,0,0,0-17.44-10.27L197.14,163.7c-8.6,32.15-17.52,58.41-24.63,77.69-11.24,30.44-16.61,39.68-22.8,39.7s-11.55-9-23-39.7c-7.19-19.24-16.19-45.5-24.82-77.69L61.2,180.91a74.78,74.78,0,0,0-17.44,10.27C25.3,202.36,11.49,232.67,9.13,269.5c26.12,10.1,60.82,17.37,100,20.37l.86,0,31.74,1,7.75.24,7.75-.24,31.74-1,.86,0c39.2-3,73.9-10.27,100-20.37C287.51,232.67,273.7,202.36,255.24,191.18Z" transform="translate(-9.13 -14.11)"/><path class="cls-4" d="M214.26,105.62c-.19,12.43-6.92,24.31-14.73,33.16-9.27,26.12-27.42,44.06-48.39,44.8l-.48,0-.88,0h-.28l-.87,0-.49,0c-21-.74-39.11-18.68-48.38-44.8-7.82-8.85-14.54-20.73-14.73-33.16-.11-6.39,1.47-16.31,5.62-17.26V61.52c.17-1.21.41-2.58.72-4.1,1.55-7.35,5.07-17.83,13.62-26.66A49.73,49.73,0,0,1,111.65,25c10.67-7.66,24.33-11.26,38-10.89,13.67-.37,27.33,3.23,38,10.88a49.09,49.09,0,0,1,6.66,5.74c8.55,8.83,12.07,19.31,13.62,26.66.32,1.52.55,2.89.72,4.1V88.36C212.78,89.31,214.36,99.23,214.26,105.62Z" transform="translate(-9.13 -14.11)"/></svg>