<svg id="Слой_4" data-name="Слой 4" xmlns="http://www.w3.org/2000/svg" xmlns:xlink="http://www.w3.org/1999/xlink" viewBox="0 0 263.46 209.39"><defs><style>.cls-1{fill:url(#Безымянный_градиент_41);}.cls-2{fill:url(#Безымянный_градиент_41-2);}.cls-3{fill:url(#Безымянный_градиент_41-3);}</style><linearGradient id="Безымянный_градиент_41" x1="50.57" y1="113.87" x2="96.64" y2="76.32" gradientUnits="userSpaceOnUse"><stop offset="0" stop-color="#ffe873"/><stop offset="1" stop-color="#ffb700"/></linearGradient><linearGradient id="Безымянный_градиент_41-2" x1="127.3" y1="208.01" x2="173.37" y2="170.46" xlink:href="#Безымянный_градиент_41"/><linearGradient id="Безымянный_градиент_41-3" x1="131.33" y1="212.95" x2="177.4" y2="175.4" gradientTransform="translate(204.77 -57.77) rotate(49.19)" xlink:href="#Безымянный_градиент_41"/></defs><title>avtm</title><path class="cls-1" d="M117.41,104.47l21-7.23V82.74l-20.92-7.22h0c-.22-.6-.47-1.19-.73-1.78l0,0,9.69-19.9L116.13,43.54,96.27,53.21l-.08,0c-.3-.13-.61-.27-.92-.39l-.85-.34-7.24-21H72.68l-7.24,21-.85.34-.83.35-20-9.74L33.49,53.72q4.86,10,9.71,20c-.26.59-.51,1.19-.74,1.8h0L21.5,82.74v14.5l21,7.24c.23.6.47,1.18.73,1.76l-9.7,19.94,10.25,10.26,19.95-9.71c.57.25,1.15.49,1.74.71l0,0,7.23,20.94h14.5l7.25-21,1.72-.7,20,9.7,10.25-10.25q-4.84-10-9.7-19.94c.13-.28.25-.57.38-.87ZM79.93,115.15A25.16,25.16,0,1,1,105.09,90,25.16,25.16,0,0,1,79.93,115.15Z" transform="translate(-21.5 -31.55)"/><path class="cls-2" d="M264,141.64,285,134.41v-14.5L264,112.69h0c-.22-.6-.47-1.19-.73-1.78l0,0L273,91,262.73,80.71l-19.86,9.67-.08,0c-.3-.13-.61-.27-.92-.39l-.85-.34-7.24-21h-14.5l-7.24,21-.85.34-.83.35-20-9.74L180.09,90.89q4.86,10,9.71,20c-.26.59-.51,1.19-.74,1.8h0l-20.94,7.23v14.5l21,7.24c.23.6.47,1.18.73,1.76l-9.7,19.94,10.25,10.26,19.95-9.71c.57.25,1.15.49,1.74.71l0,0,7.23,20.94h14.5l7.25-21,1.72-.7,20,9.7L273,163.35q-4.85-10-9.7-19.94c.13-.28.25-.57.38-.87Zm-37.48,10.68a25.16,25.16,0,1,1,25.16-25.17A25.16,25.16,0,0,1,226.53,152.32Z" transform="translate(-21.5 -31.55)"/><path class="cls-3" d="M150.27,220l19.17,11.13,11-9.47-8.2-20.55,0,0c.31-.56.59-1.13.87-1.72h0l21.4-5.67,1.06-14.45-20.3-8.72-.08,0c-.1-.31-.2-.64-.31-1s-.2-.59-.3-.87l11.14-19.18-9.47-11-20.6,8.22-.82-.42-.81-.4q-2.85-10.74-5.71-21.51l-14.45-1.07q-4.4,10.22-8.78,20.41c-.62.19-1.23.39-1.85.62h0l-19.15-11.13-11,9.48q4.11,10.31,8.22,20.6c-.31.56-.59,1.12-.86,1.7L79,170.63l-1.07,14.46,20.39,8.76c.18.59.38,1.19.6,1.78l0,0L87.77,214.83l9.47,11,20.64-8.24c.55.28,1.11.56,1.65.85q2.86,10.72,5.71,21.45l14.46,1.06,8.75-20.37.91-.28ZM117.7,198.57a25.16,25.16,0,1,1,35.49,2.6A25.15,25.15,0,0,1,117.7,198.57Z" transform="translate(-21.5 -31.55)"/></svg>