<svg id="Слой_2" data-name="Слой 2" xmlns="http://www.w3.org/2000/svg" xmlns:xlink="http://www.w3.org/1999/xlink" viewBox="0 0 251.4 246.81"><defs><style>.cls-1{fill:url(#Безымянный_градиент_10);}</style><linearGradient id="Безымянный_градиент_10" x1="80.5" y1="83.51" x2="203.59" y2="207.39" gradientUnits="userSpaceOnUse"><stop offset="0" stop-color="#ffe641"/><stop offset="1" stop-color="#ffb000"/></linearGradient></defs><title>classic-phone</title><path class="cls-1" d="M275.37,43.45a315.78,315.78,0,0,1-9,52.81c-6.89,26.07-15.06,40.73-17,44.41-.38.73-1.16,2.19-1.7,3.17A263.38,263.38,0,0,1,136.21,252.53s-25.79,11.78-39.45,16q-3.14.76-6.53,1.49a314.3,314.3,0,0,1-53.17,6.46A13.73,13.73,0,0,1,24,262.14l.68-14.26,2-41.33a12,12,0,0,1,7-10.35,1.27,1.27,0,0,1,.36-.12l4.08-1L77.28,186l20.16-4.67a1.75,1.75,0,0,1,1.65.49l27,28.22,1.18,1.44c19.43-14.91,35.17-26.19,46.12-33.85h0s35.37-22.52,35.5-39.78a12.34,12.34,0,0,0-.5-3.39,11.72,11.72,0,0,0-3.64-5.26l-26.91-28.31a1.74,1.74,0,0,1-.41-1.67l5.63-19.92L194,40.6l1.14-4a1.51,1.51,0,0,1,.14-.35A12,12,0,0,1,206,29.71h55.66A13.74,13.74,0,0,1,275.37,43.45Z" transform="translate(-23.97 -29.71)"/></svg>