<svg xmlns="http://www.w3.org/2000/svg" xmlns:xlink="http://www.w3.org/1999/xlink" viewBox="0 0 294.13 243.21"><defs><style>.cls-1{fill:url(#Безымянный_градиент_6);}.cls-2{fill:url(#Безымянный_градиент_41);}.cls-3{fill:#ffb700;}</style><linearGradient id="Безымянный_градиент_6" x1="260.4" y1="79.58" x2="159.76" y2="148.87" gradientUnits="userSpaceOnUse"><stop offset="0" stop-color="#ffdf2c"/><stop offset="1" stop-color="#ffb000"/></linearGradient><linearGradient id="Безымянный_градиент_41" x1="44.87" y1="223.16" x2="117.64" y2="162" gradientUnits="userSpaceOnUse"><stop offset="0" stop-color="#ffe873"/><stop offset="1" stop-color="#ffb700"/></linearGradient></defs><title>icon-integration</title><g id="Слой_3" data-name="Слой 3"><path class="cls-1" d="M238.05,60.26,230,29.9l-20.5-1.5L197.13,57.22v.06c-.88.25-1.74.54-2.6.84l-.05,0L167.34,42.33,151.79,55.76,163.4,84.83l0,.12c-.22.41-.45.84-.65,1.26s-.38.78-.57,1.17l-30.39,8.06-1.5,20.5,28.89,12.41c.13.4.25.82.39,1.23s.27.82.41,1.21q-7.91,13.65-15.84,27.29l13.42,15.56L186.86,162c.81.43,1.63.85,2.47,1.23v0l8,30.35,20.5,1.51q6.2-14.44,12.41-28.88c.87-.26,1.72-.54,2.56-.85L260,181.15l15.57-13.43L264,138.51c.42-.78.82-1.57,1.19-2.38l.07,0,30.35-8,1.5-20.49L268.13,95.13c-.28-.83-.55-1.67-.81-2.5Q275.2,79,283.1,65.4L269.67,49.85q-14.6,5.82-29.19,11.64c-.38-.21-.78-.41-1.19-.62S238.45,60.46,238.05,60.26Zm11.22,54.1a35.67,35.67,0,1,1-33-38.18A35.67,35.67,0,0,1,249.27,114.36Z" transform="translate(-2.94 -28.4)"/></g><g id="Слой_2" data-name="Слой 2"><path class="cls-2" d="M108.82,240.86l28.24,13.76,14.53-14.54-13.73-28.2,0,0c.38-.82.72-1.67,1-2.52l.06,0,29.66-10.23V178.51L139,168.3l-.12,0c-.17-.43-.34-.88-.53-1.31s-.34-.81-.51-1.2l13.76-28.27L137.07,123,108.8,136.71l-1.2-.51-1.18-.49q-5.16-14.9-10.3-29.82H75.57L65.28,135.64c-.85.34-1.71.69-2.55,1.07h0L34.47,123,19.93,137.49q6.88,14.13,13.76,28.26c-.38.83-.72,1.66-1,2.5L3,178.51v20.56l29.72,10.26c.32.82.66,1.65,1,2.46l0,.07L19.92,240.09l14.54,14.54,28.31-13.79c.81.33,1.63.69,2.43,1q5.14,14.87,10.29,29.73H96q5.13-14.85,10.26-29.7c.41-.15.82-.32,1.25-.49S108.41,241,108.82,240.86ZM60.55,214A35.66,35.66,0,1,1,111,214,35.65,35.65,0,0,1,60.55,214Z" transform="translate(-2.94 -28.4)"/></g><g id="Слой_5" data-name="Слой 5"><path class="cls-3" d="M93.91,210.71l-7.52-7.52L72.74,216.84l-15-15,13.65-13.65-7.52-7.52,21.24-6.2,21.24-6.21q-3.12,10.64-6.21,21.24T93.91,210.71Z" transform="translate(-2.94 -28.4)"/></g><g id="Слой_4" data-name="Слой 4"><path class="cls-3" d="M205.55,89.82l7.52,7.51,13.65-13.65,15,15-13.65,13.65,7.51,7.52-21.24,6.2-21.23,6.2q3.1-10.62,6.2-21.23T205.55,89.82Z" transform="translate(-2.94 -28.4)"/></g></svg>