<svg xmlns="http://www.w3.org/2000/svg" xmlns:xlink="http://www.w3.org/1999/xlink" viewBox="0 0 205 286"><defs><style>.cls-1{fill:#ffb300;}.cls-1,.cls-2{stroke:#ffb300;stroke-width:5px;}.cls-1,.cls-2,.cls-3{stroke-miterlimit:10;}.cls-2{fill:none;}.cls-3{stroke:#ffb000;fill:url(#Безымянный_градиент_18);}</style><radialGradient id="Безымянный_градиент_18" cx="149.9" cy="150" r="134.66" gradientUnits="userSpaceOnUse"><stop offset="0.36" stop-color="#ffe134"/><stop offset="0.54" stop-color="#ffd82b"/><stop offset="0.83" stop-color="#ffc011"/><stop offset="1" stop-color="#ffb000"/></radialGradient></defs><title>icon-sand-time</title><g id="Слой_7" data-name="Слой 7"><path class="cls-1" d="M250,281.32v9.18H50v-9.18c0-3.22,3.47-5.82,7.76-5.82H242.24C246.53,275.5,250,278.1,250,281.32Z" transform="translate(-47.5 -7)"/><path class="cls-1" d="M250,9.5v9.18c0,3.22-3.47,5.82-7.76,5.82H57.76c-4.29,0-7.76-2.6-7.76-5.82V9.5Z" transform="translate(-47.5 -7)"/><path class="cls-2" d="M215,25v.36c0,.11,0,.22,0,.33a138.55,138.55,0,0,1-4.37,33.46c0,.07,0,.15-.06.23-.11.41-.23.82-.35,1.24-3.41,11.82-7.79,20.19-12.39,29a229.79,229.79,0,0,1-20.54,32.32c-7.58,11.38-9.78,19.52-10.26,25.06,0,.35-.06.83-.15,1.38a25.33,25.33,0,0,0,0,3.26c.09.55.12,1,.15,1.38.48,5.54,2.68,13.68,10.26,25.06a229.79,229.79,0,0,1,20.54,32.32c4.6,8.8,9,17.17,12.39,29,.12.42.24.83.35,1.24,0,.08.05.16.06.23A138.55,138.55,0,0,1,215,274.31c0,.11,0,.22,0,.33V275H85v-.69a138.55,138.55,0,0,1,4.37-33.46l.06-.23c.11-.41.23-.82.35-1.24,3.41-11.82,7.79-20.19,12.39-29a229.79,229.79,0,0,1,20.54-32.32c7.58-11.38,9.78-19.52,10.26-25.06,0-.35.06-.83.15-1.38a25.33,25.33,0,0,0,0-3.26c-.09-.55-.12-1-.15-1.38-.48-5.54-2.68-13.68-10.26-25.06a229.79,229.79,0,0,1-20.54-32.32c-4.6-8.8-9-17.17-12.39-29-.12-.42-.24-.83-.35-1.24l-.06-.23A138.55,138.55,0,0,1,85,25.69V25Z" transform="translate(-47.5 -7)"/></g><g id="Слой_3" data-name="Слой 3"><path class="cls-3" d="M208.82,31.65H91.18Q120.32,90.81,149.5,150,120,209.17,90.42,268.35h119L150.5,150Z" transform="translate(-47.5 -7)"/></g></svg>