<svg xmlns="http://www.w3.org/2000/svg" xmlns:xlink="http://www.w3.org/1999/xlink" viewBox="0 0 297.51 300"><defs><style>.cls-1{fill:url(#Безымянный_градиент_12);}.cls-2{fill:url(#Безымянный_градиент_12-6);}.cls-3{fill:url(#Безымянный_градиент_12-7);}.cls-4{fill:url(#Безымянный_градиент_12-8);}</style><radialGradient id="Безымянный_градиент_12" cx="151.52" cy="148.42" r="195.98" gradientUnits="userSpaceOnUse"><stop offset="0" stop-color="#ffb000"/><stop offset="1" stop-color="#ffe743"/></radialGradient><radialGradient id="Безымянный_градиент_12-6" cx="264.99" cy="53.69" r="0" xlink:href="#Безымянный_градиент_12"/><radialGradient id="Безымянный_градиент_12-7" cx="223.85" cy="19.41" r="0" xlink:href="#Безымянный_градиент_12"/><radialGradient id="Безымянный_градиент_12-8" cx="245.46" cy="34.3" r="0" xlink:href="#Безымянный_градиент_12"/></defs><title>icon-load</title><g id="Слой_3" data-name="Слой 3"><path class="cls-1" d="M270,225v50H260V252A150,150,0,1,1,150,0V20.83a129.17,129.17,0,1,0,60,243.59q5.15-2.7,10-5.85A129.28,129.28,0,0,0,247.26,235H220V225Z"/></g><g id="Слой_5" data-name="Слой 5"><path class="cls-1" d="M193.26,28.25a129,129,0,0,0-21.83-5.65l3.45-20.54a147.94,147.94,0,0,1,25.36,6.56Z"/><path class="cls-1" d="M223.85,19.42a148.9,148.9,0,0,1,21.6,14.88L232.21,50.35A131.23,131.23,0,0,0,213.6,37.54Z"/><path class="cls-1" d="M279.92,75l-18,10.41A130.45,130.45,0,0,0,249,67.06l16-13.37A150,150,0,0,1,279.92,75Z"/><path class="cls-1" d="M297.51,122.63,277,126.43a127.37,127.37,0,0,0-5.39-20l19.61-7A147.89,147.89,0,0,1,297.51,122.63Z"/></g><g id="Слой_9" data-name="Слой 9"><line class="cls-2" x1="265" y1="53.69" x2="264.99" y2="53.69"/></g><g id="Слой_10" data-name="Слой 10"><line class="cls-3" x1="223.85" y1="19.42" x2="223.85" y2="19.41"/></g><g id="Слой_11" data-name="Слой 11"><line class="cls-4" x1="245.46" y1="34.29" x2="245.45" y2="34.3"/></g></svg>